# xmcd
#
# Track frame offsets:
#	150
#	19366
#	40688
#	61585
#	83776
#	103945
#	122988
#	145486
#	169384
#	190896
#	209106
#	240622
#	256536
#	281939
#
# Disc length: 3961 seconds
# Revision: 1
# Processed by: cddbd v1.5.2PL0 Copyright (c) Steve Scherf et al.
# Submitted via: dBpowerAMP V12.0
#
DISCID=d30f770e
DTITLE=Albert Castiglia - Solid Ground
DYEAR=2014
DGENRE=Blues
TTITLE0=Triflin'
TTITLE1=Keep You Around Too Long
TTITLE2=Searching The Desert For You
TTITLE3=Have You no Shame
TTITLE4=Put Some Stank on it
TTITLE5=Love One Another
TTITLE6=Sleepless Nights
TTITLE7=Going Down Slow
TTITLE8=Celebration
TTITLE9=Hard Time
TTITLE10=Bad Avenue
TTITLE11=Sway
TTITLE12=Little Havana Blues (Arroz Con Mango)
TTITLE13=Just Like Jesus
EXTD=
EXTT0=
EXTT1=
EXTT2=
EXTT3=
EXTT4=
EXTT5=
EXTT6=
EXTT7=
EXTT8=
EXTT9=
EXTT10=
EXTT11=
EXTT12=
EXTT13=
PLAYORDER=
